<svg id="visual" viewBox="0 0 900 600" width="900" height="600" xmlns="http://www.w3.org/2000/svg" xmlns:xlink="http://www.w3.org/1999/xlink" version="1.1"><rect x="0" y="0" width="900" height="600" fill="#1A1A1D"></rect><path d="M0 360L21.5 367.7C43 375.3 86 390.7 128.8 402.8C171.7 415 214.3 424 257.2 417.7C300 411.3 343 389.7 385.8 389.7C428.7 389.7 471.3 411.3 514.2 409.5C557 407.7 600 382.3 642.8 380.8C685.7 379.3 728.3 401.7 771.2 414C814 426.3 857 428.7 878.5 429.8L900 431L900 601L878.5 601C857 601 814 601 771.2 601C728.3 601 685.7 601 642.8 601C600 601 557 601 514.2 601C471.3 601 428.7 601 385.8 601C343 601 300 601 257.2 601C214.3 601 171.7 601 128.8 601C86 601 43 601 21.5 601L0 601Z" fill="#4e4e50"></path><path d="M0 442L21.5 439.3C43 436.7 86 431.3 128.8 435C171.7 438.7 214.3 451.3 257.2 452.3C300 453.3 343 442.7 385.8 439.3C428.7 436 471.3 440 514.2 436.7C557 433.3 600 422.7 642.8 426.5C685.7 430.3 728.3 448.7 771.2 454C814 459.3 857 451.7 878.5 447.8L900 444L900 601L878.5 601C857 601 814 601 771.2 601C728.3 601 685.7 601 642.8 601C600 601 557 601 514.2 601C471.3 601 428.7 601 385.8 601C343 601 300 601 257.2 601C214.3 601 171.7 601 128.8 601C86 601 43 601 21.5 601L0 601Z" fill="#5d4d69"></path><path d="M0 441L21.5 445.2C43 449.3 86 457.7 128.8 463.2C171.7 468.7 214.3 471.3 257.2 469.5C300 467.7 343 461.3 385.8 467.5C428.7 473.7 471.3 492.3 514.2 490.7C557 489 600 467 642.8 456.5C685.7 446 728.3 447 771.2 457.7C814 468.3 857 488.7 878.5 498.8L900 509L900 601L878.5 601C857 601 814 601 771.2 601C728.3 601 685.7 601 642.8 601C600 601 557 601 514.2 601C471.3 601 428.7 601 385.8 601C343 601 300 601 257.2 601C214.3 601 171.7 601 128.8 601C86 601 43 601 21.5 601L0 601Z" fill="#7f4371"></path><path d="M0 517L21.5 519C43 521 86 525 128.8 521.3C171.7 517.7 214.3 506.3 257.2 506.3C300 506.3 343 517.7 385.8 520.2C428.7 522.7 471.3 516.3 514.2 514.2C557 512 600 514 642.8 516.2C685.7 518.3 728.3 520.7 771.2 515.3C814 510 857 497 878.5 490.5L900 484L900 601L878.5 601C857 601 814 601 771.2 601C728.3 601 685.7 601 642.8 601C600 601 557 601 514.2 601C471.3 601 428.7 601 385.8 601C343 601 300 601 257.2 601C214.3 601 171.7 601 128.8 601C86 601 43 601 21.5 601L0 601Z" fill="#a62d63"></path><path d="M0 559L21.5 560.2C43 561.3 86 563.7 128.8 558.2C171.7 552.7 214.3 539.3 257.2 540C300 540.7 343 555.3 385.8 556.8C428.7 558.3 471.3 546.7 514.2 540.2C557 533.7 600 532.3 642.8 532C685.7 531.7 728.3 532.3 771.2 532.8C814 533.3 857 533.7 878.5 533.8L900 534L900 601L878.5 601C857 601 814 601 771.2 601C728.3 601 685.7 601 642.8 601C600 601 557 601 514.2 601C471.3 601 428.7 601 385.8 601C343 601 300 601 257.2 601C214.3 601 171.7 601 128.8 601C86 601 43 601 21.5 601L0 601Z" fill="#c3073f"></path></svg>